<?xml version="1.0" encoding="UTF-8" standalone="no"?>
<svg
   viewBox="0 0 838.77557 358.1633"
   height="358.1633"
   width="838.77557"
   xml:space="preserve"
   id="svg2"
   version="1.1"
   sodipodi:docname="logo_unesp.svg"
   inkscape:version="1.3 (1:1.3+202307231459+0e150ed6c4)"
   xmlns:inkscape="http://www.inkscape.org/namespaces/inkscape"
   xmlns:sodipodi="http://sodipodi.sourceforge.net/DTD/sodipodi-0.dtd"
   xmlns="http://www.w3.org/2000/svg"
   xmlns:svg="http://www.w3.org/2000/svg"
   xmlns:rdf="http://www.w3.org/1999/02/22-rdf-syntax-ns#"
   xmlns:cc="http://creativecommons.org/ns#"
   xmlns:dc="http://purl.org/dc/elements/1.1/"><sodipodi:namedview
     pagecolor="#ffffff"
     bordercolor="#666666"
     borderopacity="1"
     objecttolerance="10"
     gridtolerance="10"
     guidetolerance="10"
     inkscape:pageopacity="0"
     inkscape:pageshadow="2"
     inkscape:window-width="1920"
     inkscape:window-height="1016"
     id="namedview17"
     showgrid="false"
     inkscape:zoom="1.2868088"
     inkscape:cx="415.75719"
     inkscape:cy="179.51385"
     inkscape:window-x="0"
     inkscape:window-y="0"
     inkscape:window-maximized="1"
     inkscape:current-layer="svg2"
     inkscape:showpageshadow="2"
     inkscape:pagecheckerboard="0"
     inkscape:deskcolor="#d1d1d1" /><metadata
     id="metadata8"><rdf:RDF><cc:Work
         rdf:about=""><dc:format>image/svg+xml</dc:format><dc:type
           rdf:resource="http://purl.org/dc/dcmitype/StillImage" /></cc:Work></rdf:RDF></metadata><defs
     id="defs6">&#10;</defs><path
     inkscape:connector-curvature="0"
     d="M 0,9.6207489e-6 H 838.77598 V 358.16133 H 0 Z"
     style="fill:#ffffff;fill-opacity:1;fill-rule:nonzero;stroke:none;stroke-width:1.33333"
     id="path14" /><path
     inkscape:connector-curvature="0"
     d="M 253.95866,88.140007 V 188.984 h -26.44267 v -11.96799 c -3.828,4.87466 -8.32266,8.54666 -13.42266,10.98399 -5.09334,2.44267 -10.828,3.672 -17.192,3.672 -11.07867,0 -19.38533,-2.90666 -24.91733,-8.70266 -5.54667,-5.81867 -8.296,-14.53733 -8.296,-26.08933 V 88.140007 h 27.00933 v 60.948003 c 0,7.188 1.204,12.28666 3.60933,15.36 2.40667,3.068 6.39067,4.588 11.96933,4.588 6.29734,0 11.33334,-1.9 15.068,-5.69734 3.73467,-3.80266 5.604,-8.99466 5.604,-15.54666 V 88.140007 h 27.01067"
     style="fill:#231f20;fill-opacity:1;fill-rule:evenodd;stroke:none;stroke-width:1.33333"
     id="path18" /><path
     inkscape:connector-curvature="0"
     d="M 577.59865,229.51067 V 88.234674 h 25.67733 v 13.645336 c 3.896,-5.953336 8.26534,-10.254669 13.04667,-12.984003 4.78133,-2.718666 10.448,-4.083999 16.93733,-4.083999 12.40667,0 22.51067,4.911999 30.23467,14.693332 7.72933,9.81733 11.588,22.69733 11.588,38.63067 0,16.14533 -3.85867,29.25466 -11.588,39.28533 -7.724,10.03733 -17.69733,15.07866 -29.88533,15.07866 -6.432,0 -12.16134,-1.36933 -17.19334,-4.088 -5.036,-2.724 -9.244,-6.68266 -12.572,-11.87599 v 52.97466 h -26.24533 m 70.66667,-90.26533 c 0,-10.136 -1.932,-17.89067 -5.76,-23.24533 -3.828,-5.34934 -9.37467,-8.01067 -16.688,-8.01067 -7.15067,0 -12.63467,2.66133 -16.36934,7.98 -3.73466,5.31733 -5.604,13.072 -5.604,23.276 0,9.52533 1.968,16.90533 5.89067,22.09867 3.92667,5.18666 9.468,7.78666 16.656,7.78666 6.80667,0 12.12,-2.66133 16.016,-7.98 3.896,-5.32266 5.85867,-12.62933 5.85867,-21.90533"
     style="fill:#231f20;fill-opacity:1;fill-rule:evenodd;stroke:none;stroke-width:1.33333"
     id="path20" /><path
     inkscape:connector-curvature="0"
     d="m 502.49465,158.45867 c 0.62534,4.01467 2.396,7.088 5.35467,9.21334 3.448,2.49466 8.64,3.77066 15.56667,3.77066 5.26133,0 9.33866,-0.90133 12.224,-2.66133 2.876,-1.75467 4.308,-4.24 4.308,-7.47467 0,-4.55733 -5.38,-8.02 -16.14534,-10.28533 -4.40133,-0.93333 -7.88533,-1.74533 -10.48,-2.40667 -13.13466,-3.36 -22.224,-7.292 -27.32266,-11.87466 -5.09334,-4.56267 -7.66667,-10.76667 -7.66667,-18.55734 0,-10.31866 3.74533,-18.479996 11.17733,-24.505329 7.448,-6.032 17.54667,-9.052 30.27067,-9.052 13.484,0 24.10933,3 31.78667,8.989333 7.70266,6.005333 11.776,14.442666 12.28666,25.333336 h -26.25066 c -0.188,-4.276 -1.80134,-7.57334 -4.87467,-9.94267 -3.04133,-2.344 -7.31333,-3.516 -12.76,-3.516 -5.13067,0 -8.92267,0.76133 -11.428,2.31333 -2.5,1.552 -3.76533,3.85867 -3.76533,6.96267 0,4.02133 6.69733,7.604 20.13066,10.67733 3.06267,0.69334 5.50934,1.24534 7.31734,1.672 13.42133,3.15067 22.59866,6.94267 27.516,11.396 4.896,4.43734 7.37466,10.70267 7.37466,18.80667 0,11.464 -4.016,20.18267 -12.09866,26.188 -8.06267,5.98933 -19.81867,8.99466 -35.204,8.99466 -13.932,0 -24.82267,-3.14 -32.676,-9.37466 -7.568,-6.02133 -11.5,-14.25067 -11.772,-24.66667 h 27.13066"
     style="fill:#231f20;fill-opacity:1;fill-rule:evenodd;stroke:none;stroke-width:1.33333"
     id="path22" /><path
     inkscape:connector-curvature="0"
     d="m 398.55732,128.03601 h 39.69734 c -0.25467,-6.812 -2.04134,-11.98934 -5.41067,-15.552 -3.37067,-3.55734 -8.23467,-5.31734 -14.532,-5.31734 -5.85867,0 -10.48933,1.80267 -13.86933,5.38 -3.364,3.57334 -5.32267,8.74 -5.88534,15.48934 m 39.32267,30.42266 h 26.912 c -2.724,10.64 -8.21333,18.95734 -16.46933,24.984 -8.27067,6.03067 -18.328,9.05733 -30.20267,9.05733 -14.59333,0 -26.172,-4.90133 -34.704,-14.69733 -8.53067,-9.79733 -12.79067,-23.07866 -12.79067,-39.86 0,-16.49466 4.20267,-29.52133 12.604,-39.035996 8.41067,-9.542667 19.916,-14.281333 34.51067,-14.281333 15.484,0 27.432,4.677333 35.844,14.057333 8.4,9.363996 12.59867,22.697336 12.59867,40.019996 0,1.93334 0,3.36 -0.032,4.33334 -0.0307,0.95333 -0.124,1.87066 -0.25467,2.72933 h -67.33867 c 0.37467,7.91733 2.30667,13.86533 5.792,17.88533 3.47867,4.02134 8.51467,6.016 15.06667,6.016 4.65733,0 8.464,-0.91733 11.40133,-2.724 2.98,-1.828 5.31867,-4.65066 7.06267,-8.484"
     style="fill:#231f20;fill-opacity:1;fill-rule:evenodd;stroke:none;stroke-width:1.33333"
     id="path24" /><path
     inkscape:connector-curvature="0"
     d="M 269.82266,188.984 V 88.140007 h 26.43733 v 11.969333 c 3.80267,-4.874666 8.23467,-8.551999 13.36534,-10.989333 5.124,-2.437333 10.85333,-3.672 17.16133,-3.672 11.14,0 19.47333,2.885334 25.01066,8.677334 5.536,5.795999 8.29067,14.467999 8.29067,26.119999 V 188.984 h -27.00533 v -60.94799 c 0,-7.24934 -1.23333,-12.416 -3.67067,-15.484 -2.44266,-3.104 -6.396,-4.656 -11.90666,-4.656 -6.36534,0 -11.396,1.90133 -15.09867,5.70266 -3.704,3.79734 -5.57867,8.98934 -5.57867,15.54667 V 188.984 h -27.00533"
     style="fill:#231f20;fill-opacity:1;fill-rule:evenodd;stroke:none;stroke-width:1.33333"
     id="path26" /><path
     d="m 89.184645,283.01766 q -5.304687,0 -8.130207,-2.58854 -2.807292,-2.58854 -2.807292,-7.40104 v -16.0599 h 5.377604 v 15.64063 q 0,3.04427 1.440104,4.6302 1.458333,1.56771 4.265624,1.56771 2.880208,0 4.429687,-1.64062 1.549479,-1.65886 1.549479,-4.73958 v -15.45834 h 5.377606 v 15.78646 q 0,4.88542 -3.026044,7.58333 -3.007812,2.67969 -8.476561,2.67969 z"
     style="font-variant:normal;font-weight:bold;font-size:37.3333px;font-family:Arial;-inkscape-font-specification:Arial-BoldMT;writing-mode:lr-tb;fill:#000000;fill-opacity:1;fill-rule:nonzero;stroke:none;stroke-width:1.33333"
     id="path4548"
     inkscape:connector-curvature="0" /><path
     d="m 121.09765,282.65308 -11.19271,-19.77865 q 0.32813,2.88021 0.32813,4.63021 v 15.14844 h -4.77604 v -25.6849 h 6.14323 l 11.35677,19.94271 q -0.32813,-2.7526 -0.32813,-5.01302 v -14.92969 h 4.77604 v 25.6849 z"
     style="font-variant:normal;font-weight:bold;font-size:37.3333px;font-family:Arial;-inkscape-font-specification:Arial-BoldMT;writing-mode:lr-tb;fill:#000000;fill-opacity:1;fill-rule:nonzero;stroke:none;stroke-width:1.33333"
     id="path4550"
     inkscape:connector-curvature="0" /><path
     d="m 132.41169,282.65308 v -25.6849 h 5.3776 v 25.6849 z"
     style="font-variant:normal;font-weight:bold;font-size:37.3333px;font-family:Arial;-inkscape-font-specification:Arial-BoldMT;writing-mode:lr-tb;fill:#000000;fill-opacity:1;fill-rule:nonzero;stroke:none;stroke-width:1.33333"
     id="path4552"
     inkscape:connector-curvature="0" /><path
     d="m 155.45874,282.65308 h -5.45052 l -9.4974,-25.6849 h 5.61459 l 5.28645,16.4974 q 0.49219,1.60416 1.34896,4.84896 l 0.38281,-1.56771 0.92969,-3.28125 5.26823,-16.4974 h 5.5599 z"
     style="font-variant:normal;font-weight:bold;font-size:37.3333px;font-family:Arial;-inkscape-font-specification:Arial-BoldMT;writing-mode:lr-tb;fill:#000000;fill-opacity:1;fill-rule:nonzero;stroke:none;stroke-width:1.33333"
     id="path4554"
     inkscape:connector-curvature="0" /><path
     d="m 167.61701,282.65308 v -25.6849 h 20.19791 v 4.15625 h -14.82031 v 6.45313 h 13.70833 v 4.15625 h -13.70833 v 6.76302 h 15.56771 v 4.15625 z"
     style="font-variant:normal;font-weight:bold;font-size:37.3333px;font-family:Arial;-inkscape-font-specification:Arial-BoldMT;writing-mode:lr-tb;fill:#000000;fill-opacity:1;fill-rule:nonzero;stroke:none;stroke-width:1.33333"
     id="path4556"
     inkscape:connector-curvature="0" /><path
     d="m 210.12684,282.65308 -5.96094,-9.75261 h -6.30729 v 9.75261 h -5.3776 v -25.6849 h 12.83333 q 4.59375,0 7.09114,1.98698 2.4974,1.96875 2.4974,5.66927 0,2.69792 -1.53125,4.66667 -1.53125,1.95052 -4.13802,2.57031 l 6.94531,10.79167 z m -0.63802,-17.8099 q 0,-3.70052 -4.73958,-3.70052 h -6.89063 v 7.58333 h 7.03646 q 2.26041,0 3.42708,-1.02083 1.16667,-1.02083 1.16667,-2.86198 z"
     style="font-variant:normal;font-weight:bold;font-size:37.3333px;font-family:Arial;-inkscape-font-specification:Arial-BoldMT;writing-mode:lr-tb;fill:#000000;fill-opacity:1;fill-rule:nonzero;stroke:none;stroke-width:1.33333"
     id="path4558"
     inkscape:connector-curvature="0" /><path
     d="m 240.49298,275.25204 q 0,3.77343 -2.80729,5.77864 -2.78906,1.98698 -8.20312,1.98698 -4.94011,0 -7.7474,-1.75 -2.80729,-1.75 -3.60937,-5.30469 l 5.19531,-0.85677 q 0.52865,2.04167 2.0599,2.97136 1.53125,0.91145 4.24739,0.91145 5.63281,0 5.63281,-3.42708 0,-1.09375 -0.65625,-1.80469 -0.63802,-0.71093 -1.82291,-1.18489 -1.16667,-0.47396 -4.50261,-1.14844 -2.88021,-0.67448 -4.01041,-1.07552 -1.13021,-0.41927 -2.04167,-0.96615 -0.91146,-0.5651 -1.54948,-1.34895 -0.63802,-0.78386 -1.0026,-1.84115 -0.34636,-1.05729 -0.34636,-2.42448 0,-3.48177 2.60677,-5.32291 2.625,-1.85938 7.61979,-1.85938 4.77605,0 7.16407,1.49479 2.40625,1.49479 3.09895,4.94011 l -5.21354,0.71093 q -0.40104,-1.65885 -1.64062,-2.49739 -1.22136,-0.83854 -3.51823,-0.83854 -4.88542,0 -4.88542,3.0625 0,1.0026 0.51042,1.64062 0.52865,0.63802 1.54948,1.09375 1.02083,0.4375 4.13802,1.11198 3.70052,0.78385 5.28646,1.45833 1.60416,0.65625 2.53385,1.54948 0.92969,0.875 1.42188,2.11459 0.49218,1.22135 0.49218,2.82552 z"
     style="font-variant:normal;font-weight:bold;font-size:37.3333px;font-family:Arial;-inkscape-font-specification:Arial-BoldMT;writing-mode:lr-tb;fill:#000000;fill-opacity:1;fill-rule:nonzero;stroke:none;stroke-width:1.33333"
     id="path4560"
     inkscape:connector-curvature="0" /><path
     d="m 244.41169,282.65308 v -25.6849 h 5.3776 v 25.6849 z"
     style="font-variant:normal;font-weight:bold;font-size:37.3333px;font-family:Arial;-inkscape-font-specification:Arial-BoldMT;writing-mode:lr-tb;fill:#000000;fill-opacity:1;fill-rule:nonzero;stroke:none;stroke-width:1.33333"
     id="path4562"
     inkscape:connector-curvature="0" /><path
     d="m 277.64883,269.61922 q 0,3.97396 -1.56771,6.94532 -1.54948,2.95312 -4.41146,4.52083 -2.84375,1.56771 -6.52604,1.56771 H 254.753 v -25.6849 h 9.29687 q 6.48958,0 10.04427,3.28125 3.55469,3.26302 3.55469,9.36979 z m -5.41407,0 q 0,-4.13802 -2.15104,-6.30729 -2.15104,-2.1875 -6.14323,-2.1875 h -3.80989 v 17.3724 h 4.55729 q 3.46354,0 5.50521,-2.38802 2.04166,-2.38802 2.04166,-6.48959 z"
     style="font-variant:normal;font-weight:bold;font-size:37.3333px;font-family:Arial;-inkscape-font-specification:Arial-BoldMT;writing-mode:lr-tb;fill:#000000;fill-opacity:1;fill-rule:nonzero;stroke:none;stroke-width:1.33333"
     id="path4564"
     inkscape:connector-curvature="0" /><path
     d="m 299.86391,282.65308 -2.27865,-6.5625 h -9.78906 l -2.27864,6.5625 h -5.37761 l 9.36979,-25.6849 h 6.34375 l 9.33334,25.6849 z m -7.18229,-21.72917 -0.10938,0.40104 q -0.18229,0.65625 -0.4375,1.4948 -0.2552,0.83854 -3.13541,9.22395 h 7.38281 l -2.53386,-7.38281 -0.78385,-2.47917 z"
     style="font-variant:normal;font-weight:bold;font-size:37.3333px;font-family:Arial;-inkscape-font-specification:Arial-BoldMT;writing-mode:lr-tb;fill:#000000;fill-opacity:1;fill-rule:nonzero;stroke:none;stroke-width:1.33333"
     id="path4566"
     inkscape:connector-curvature="0" /><path
     d="m 331.55817,269.61922 q 0,3.97396 -1.5677,6.94532 -1.54948,2.95312 -4.41146,4.52083 -2.84375,1.56771 -6.52604,1.56771 h -10.39063 v -25.6849 h 9.29688 q 6.48958,0 10.04427,3.28125 3.55468,3.26302 3.55468,9.36979 z m -5.41406,0 q 0,-4.13802 -2.15104,-6.30729 -2.15104,-2.1875 -6.14323,-2.1875 h -3.80989 v 17.3724 h 4.55729 q 3.46354,0 5.50521,-2.38802 2.04166,-2.38802 2.04166,-6.48959 z"
     style="font-variant:normal;font-weight:bold;font-size:37.3333px;font-family:Arial;-inkscape-font-specification:Arial-BoldMT;writing-mode:lr-tb;fill:#000000;fill-opacity:1;fill-rule:nonzero;stroke:none;stroke-width:1.33333"
     id="path4568"
     inkscape:connector-curvature="0" /><path
     d="m 335.61702,282.65308 v -25.6849 h 20.19792 v 4.15625 h -14.82031 v 6.45313 h 13.70833 v 4.15625 h -13.70833 v 6.76302 h 15.5677 v 4.15625 z"
     style="font-variant:normal;font-weight:bold;font-size:37.3333px;font-family:Arial;-inkscape-font-specification:Arial-BoldMT;writing-mode:lr-tb;fill:#000000;fill-opacity:1;fill-rule:nonzero;stroke:none;stroke-width:1.33333"
     id="path4570"
     inkscape:connector-curvature="0" /><path
     d="m 370.93435,282.65308 v -25.6849 h 20.19791 v 4.15625 h -14.82031 v 6.45313 h 13.70833 v 4.15625 h -13.70833 v 6.76302 h 15.56771 v 4.15625 z"
     style="font-variant:normal;font-weight:bold;font-size:37.3333px;font-family:Arial;-inkscape-font-specification:Arial-BoldMT;writing-mode:lr-tb;fill:#000000;fill-opacity:1;fill-rule:nonzero;stroke:none;stroke-width:1.33333"
     id="path4572"
     inkscape:connector-curvature="0" /><path
     d="m 416.74364,275.25204 q 0,3.77343 -2.80729,5.77864 -2.78906,1.98698 -8.20313,1.98698 -4.9401,0 -7.74739,-1.75 -2.80729,-1.75 -3.60938,-5.30469 l 5.19532,-0.85677 q 0.52864,2.04167 2.05989,2.97136 1.53125,0.91145 4.2474,0.91145 5.63281,0 5.63281,-3.42708 0,-1.09375 -0.65625,-1.80469 -0.63802,-0.71093 -1.82292,-1.18489 -1.16666,-0.47396 -4.5026,-1.14844 -2.88021,-0.67448 -4.01042,-1.07552 -1.13021,-0.41927 -2.04166,-0.96615 -0.91146,-0.5651 -1.54948,-1.34895 -0.63802,-0.78386 -1.00261,-1.84115 -0.34635,-1.05729 -0.34635,-2.42448 0,-3.48177 2.60677,-5.32291 2.625,-1.85938 7.61979,-1.85938 4.77604,0 7.16406,1.49479 2.40625,1.49479 3.09896,4.94011 l -5.21354,0.71093 q -0.40104,-1.65885 -1.64063,-2.49739 -1.22135,-0.83854 -3.51822,-0.83854 -4.88542,0 -4.88542,3.0625 0,1.0026 0.51042,1.64062 0.52864,0.63802 1.54948,1.09375 1.02083,0.4375 4.13802,1.11198 3.70052,0.78385 5.28645,1.45833 1.60417,0.65625 2.53386,1.54948 0.92968,0.875 1.42187,2.11459 0.49219,1.22135 0.49219,2.82552 z"
     style="font-variant:normal;font-weight:bold;font-size:37.3333px;font-family:Arial;-inkscape-font-specification:Arial-BoldMT;writing-mode:lr-tb;fill:#000000;fill-opacity:1;fill-rule:nonzero;stroke:none;stroke-width:1.33333"
     id="path4574"
     inkscape:connector-curvature="0" /><path
     d="m 432.25609,261.12443 v 21.52865 h -5.3776 v -21.52865 h -8.29427 v -4.15625 h 21.98437 v 4.15625 z"
     style="font-variant:normal;font-weight:bold;font-size:37.3333px;font-family:Arial;-inkscape-font-specification:Arial-BoldMT;writing-mode:lr-tb;fill:#000000;fill-opacity:1;fill-rule:nonzero;stroke:none;stroke-width:1.33333"
     id="path4576"
     inkscape:connector-curvature="0" /><path
     d="m 458.90392,282.65308 -2.27865,-6.5625 h -9.78906 l -2.27864,6.5625 h -5.37761 l 9.36979,-25.6849 h 6.34375 l 9.33333,25.6849 z m -7.18229,-21.72917 -0.10938,0.40104 q -0.18229,0.65625 -0.4375,1.4948 -0.25521,0.83854 -3.13541,9.22395 h 7.38281 l -2.53386,-7.38281 -0.78385,-2.47917 z"
     style="font-variant:normal;font-weight:bold;font-size:37.3333px;font-family:Arial;-inkscape-font-specification:Arial-BoldMT;writing-mode:lr-tb;fill:#000000;fill-opacity:1;fill-rule:nonzero;stroke:none;stroke-width:1.33333"
     id="path4578"
     inkscape:connector-curvature="0" /><path
     d="m 490.59815,269.61922 q 0,3.97396 -1.56771,6.94532 -1.54948,2.95312 -4.41145,4.52083 -2.84375,1.56771 -6.52605,1.56771 h -10.39062 v -25.6849 h 9.29687 q 6.48959,0 10.04427,3.28125 3.55469,3.26302 3.55469,9.36979 z m -5.41406,0 q 0,-4.13802 -2.15104,-6.30729 -2.15104,-2.1875 -6.14323,-2.1875 h -3.8099 v 17.3724 h 4.5573 q 3.46354,0 5.5052,-2.38802 2.04167,-2.38802 2.04167,-6.48959 z"
     style="font-variant:normal;font-weight:bold;font-size:37.3333px;font-family:Arial;-inkscape-font-specification:Arial-BoldMT;writing-mode:lr-tb;fill:#000000;fill-opacity:1;fill-rule:nonzero;stroke:none;stroke-width:1.33333"
     id="path4580"
     inkscape:connector-curvature="0" /><path
     d="m 505.33929,283.01766 q -5.30468,0 -8.1302,-2.58854 -2.8073,-2.58854 -2.8073,-7.40104 v -16.0599 h 5.37761 v 15.64063 q 0,3.04427 1.4401,4.6302 1.45833,1.56771 4.26563,1.56771 2.8802,0 4.42968,-1.64062 1.54948,-1.65886 1.54948,-4.73958 v -15.45834 h 5.37761 v 15.78646 q 0,4.88542 -3.02605,7.58333 -3.00781,2.67969 -8.47656,2.67969 z"
     style="font-variant:normal;font-weight:bold;font-size:37.3333px;font-family:Arial;-inkscape-font-specification:Arial-BoldMT;writing-mode:lr-tb;fill:#000000;fill-opacity:1;fill-rule:nonzero;stroke:none;stroke-width:1.33333"
     id="path4582"
     inkscape:connector-curvature="0" /><path
     d="m 539.7679,282.65308 -2.27864,-6.5625 h -9.78907 l -2.27864,6.5625 h -5.3776 l 9.36979,-25.6849 h 6.34374 l 9.33334,25.6849 z m -7.18229,-21.72917 -0.10937,0.40104 q -0.1823,0.65625 -0.4375,1.4948 -0.25521,0.83854 -3.13542,9.22395 h 7.38281 l -2.53385,-7.38281 -0.78386,-2.47917 z"
     style="font-variant:normal;font-weight:bold;font-size:37.3333px;font-family:Arial;-inkscape-font-specification:Arial-BoldMT;writing-mode:lr-tb;fill:#000000;fill-opacity:1;fill-rule:nonzero;stroke:none;stroke-width:1.33333"
     id="path4584"
     inkscape:connector-curvature="0" /><path
     d="m 548.5663,282.65308 v -25.6849 h 5.37761 v 21.52865 h 13.78125 v 4.15625 z"
     style="font-variant:normal;font-weight:bold;font-size:37.3333px;font-family:Arial;-inkscape-font-specification:Arial-BoldMT;writing-mode:lr-tb;fill:#000000;fill-opacity:1;fill-rule:nonzero;stroke:none;stroke-width:1.33333"
     id="path4586"
     inkscape:connector-curvature="0" /><path
     d="m 602.17395,265.09839 q 0,2.47917 -1.13021,4.42969 -1.13021,1.95052 -3.24479,3.02604 -2.09636,1.05729 -4.99479,1.05729 h -6.38021 v 9.04167 h -5.3776 v -25.6849 h 11.53906 q 4.61198,0 7.09114,2.13282 2.4974,2.11458 2.4974,5.99739 z m -5.41406,0.0912 q 0,-4.04688 -4.77605,-4.04688 h -5.55989 v 8.33073 h 5.70573 q 2.22396,0 3.42708,-1.09375 1.20313,-1.11198 1.20313,-3.1901 z"
     style="font-variant:normal;font-weight:bold;font-size:37.3333px;font-family:Arial;-inkscape-font-specification:Arial-BoldMT;writing-mode:lr-tb;fill:#000000;fill-opacity:1;fill-rule:nonzero;stroke:none;stroke-width:1.33333"
     id="path4588"
     inkscape:connector-curvature="0" /><path
     d="m 621.30391,282.65308 -2.27864,-6.5625 h -9.78907 l -2.27864,6.5625 h -5.3776 l 9.36979,-25.6849 h 6.34375 l 9.33333,25.6849 z m -7.18229,-21.72917 -0.10937,0.40104 q -0.1823,0.65625 -0.4375,1.4948 -0.25521,0.83854 -3.13542,9.22395 h 7.38281 l -2.53385,-7.38281 -0.78386,-2.47917 z"
     style="font-variant:normal;font-weight:bold;font-size:37.3333px;font-family:Arial;-inkscape-font-specification:Arial-BoldMT;writing-mode:lr-tb;fill:#000000;fill-opacity:1;fill-rule:nonzero;stroke:none;stroke-width:1.33333"
     id="path4590"
     inkscape:connector-curvature="0" /><path
     d="m 640.78461,283.01766 q -5.30469,0 -8.13021,-2.58854 -2.80729,-2.58854 -2.80729,-7.40104 v -16.0599 h 5.3776 v 15.64063 q 0,3.04427 1.4401,4.6302 1.45834,1.56771 4.26563,1.56771 2.88021,0 4.42969,-1.64062 1.54947,-1.65886 1.54947,-4.73958 v -15.45834 h 5.37761 v 15.78646 q 0,4.88542 -3.02604,7.58333 -3.00782,2.67969 -8.47656,2.67969 z"
     style="font-variant:normal;font-weight:bold;font-size:37.3333px;font-family:Arial;-inkscape-font-specification:Arial-BoldMT;writing-mode:lr-tb;fill:#000000;fill-opacity:1;fill-rule:nonzero;stroke:none;stroke-width:1.33333"
     id="path4592"
     inkscape:connector-curvature="0" /><path
     d="m 657.05697,282.65308 v -25.6849 h 5.3776 v 21.52865 h 13.78125 v 4.15625 z"
     style="font-variant:normal;font-weight:bold;font-size:37.3333px;font-family:Arial;-inkscape-font-specification:Arial-BoldMT;writing-mode:lr-tb;fill:#000000;fill-opacity:1;fill-rule:nonzero;stroke:none;stroke-width:1.33333"
     id="path4594"
     inkscape:connector-curvature="0" /><path
     d="m 679.83028,282.65308 v -25.6849 h 5.3776 v 25.6849 z"
     style="font-variant:normal;font-weight:bold;font-size:37.3333px;font-family:Arial;-inkscape-font-specification:Arial-BoldMT;writing-mode:lr-tb;fill:#000000;fill-opacity:1;fill-rule:nonzero;stroke:none;stroke-width:1.33333"
     id="path4596"
     inkscape:connector-curvature="0" /><path
     d="m 711.11696,275.25204 q 0,3.77343 -2.80729,5.77864 -2.78906,1.98698 -8.20312,1.98698 -4.94011,0 -7.7474,-1.75 -2.80729,-1.75 -3.60937,-5.30469 l 5.19531,-0.85677 q 0.52864,2.04167 2.05989,2.97136 1.53125,0.91145 4.2474,0.91145 5.63281,0 5.63281,-3.42708 0,-1.09375 -0.65625,-1.80469 -0.63802,-0.71093 -1.82292,-1.18489 -1.16666,-0.47396 -4.5026,-1.14844 -2.88021,-0.67448 -4.01042,-1.07552 -1.1302,-0.41927 -2.04166,-0.96615 -0.91146,-0.5651 -1.54948,-1.34895 -0.63802,-0.78386 -1.0026,-1.84115 -0.34636,-1.05729 -0.34636,-2.42448 0,-3.48177 2.60677,-5.32291 2.625,-1.85938 7.61979,-1.85938 4.77604,0 7.16406,1.49479 2.40625,1.49479 3.09896,4.94011 l -5.21354,0.71093 q -0.40104,-1.65885 -1.64062,-2.49739 -1.22136,-0.83854 -3.51823,-0.83854 -4.88542,0 -4.88542,3.0625 0,1.0026 0.51042,1.64062 0.52864,0.63802 1.54948,1.09375 1.02083,0.4375 4.13802,1.11198 3.70052,0.78385 5.28645,1.45833 1.60417,0.65625 2.53386,1.54948 0.92969,0.875 1.42187,2.11459 0.49219,1.22135 0.49219,2.82552 z"
     style="font-variant:normal;font-weight:bold;font-size:37.3333px;font-family:Arial;-inkscape-font-specification:Arial-BoldMT;writing-mode:lr-tb;fill:#000000;fill-opacity:1;fill-rule:nonzero;stroke:none;stroke-width:1.33333"
     id="path4598"
     inkscape:connector-curvature="0" /><path
     d="m 726.62941,261.12443 v 21.52865 h -5.3776 v -21.52865 h -8.29427 v -4.15625 h 21.98437 v 4.15625 z"
     style="font-variant:normal;font-weight:bold;font-size:37.3333px;font-family:Arial;-inkscape-font-specification:Arial-BoldMT;writing-mode:lr-tb;fill:#000000;fill-opacity:1;fill-rule:nonzero;stroke:none;stroke-width:1.33333"
     id="path4600"
     inkscape:connector-curvature="0" /><path
     d="m 753.27724,282.65308 -2.27865,-6.5625 h -9.78906 l -2.27864,6.5625 h -5.37761 l 9.36979,-25.6849 h 6.34375 l 9.33334,25.6849 z m -7.18229,-21.72917 -0.10938,0.40104 q -0.18229,0.65625 -0.4375,1.4948 -0.2552,0.83854 -3.13541,9.22395 h 7.38281 l -2.53385,-7.38281 -0.78386,-2.47917 z"
     style="font-variant:normal;font-weight:bold;font-size:37.3333px;font-family:Arial;-inkscape-font-specification:Arial-BoldMT;writing-mode:lr-tb;fill:#000000;fill-opacity:1;fill-rule:nonzero;stroke:none;stroke-width:1.33333"
     id="path4602"
     inkscape:connector-curvature="0" /><path
     d="m 167.28749,308.32409 h -3.99219 l -0.49219,-9.3151 h 5.01302 z m -7.76563,0 h -3.99218 l -0.49219,-9.3151 h 4.97656 z"
     style="font-variant:normal;font-weight:bold;font-size:37.3333px;font-family:Arial;-inkscape-font-specification:Arial-BoldMT;writing-mode:lr-tb;fill:#000000;fill-opacity:1;fill-rule:nonzero;stroke:none;stroke-width:1.33333"
     id="path4604"
     inkscape:connector-curvature="0" /><path
     d="m 179.82463,325.05846 q -3.99218,0 -6.14322,-1.73177 -2.13282,-1.73177 -2.84375,-5.59635 l 5.34114,-0.78386 q 0.32813,1.98698 1.22136,2.95313 0.89322,0.94791 2.46093,0.94791 1.60417,0 2.42448,-1.07552 0.83854,-1.07552 0.83854,-3.08072 v -13.47136 h -5.12239 v -4.21093 h 10.48177 v 17.55468 q 0,4.01042 -2.27865,6.2526 -2.27864,2.24219 -6.38021,2.24219 z"
     style="font-variant:normal;font-weight:bold;font-size:37.3333px;font-family:Arial;-inkscape-font-specification:Arial-BoldMT;writing-mode:lr-tb;fill:#000000;fill-opacity:1;fill-rule:nonzero;stroke:none;stroke-width:1.33333"
     id="path4606"
     inkscape:connector-curvature="0" /><path
     d="m 204.20958,325.05846 q -5.30469,0 -8.13021,-2.58854 -2.80729,-2.58854 -2.80729,-7.40104 v -16.05989 h 5.3776 v 15.64062 q 0,3.04427 1.44011,4.63021 1.45833,1.5677 4.26562,1.5677 2.88021,0 4.42969,-1.64062 1.54948,-1.65885 1.54948,-4.73958 v -15.45833 h 5.3776 v 15.78645 q 0,4.88542 -3.02604,7.58333 -3.00781,2.67969 -8.47656,2.67969 z m -2.38802,-28.2552 v -0.56511 l 4.59375,-4.6302 h 4.70312 v 0.78385 l -6.19791,4.41146 z"
     style="font-variant:normal;font-weight:bold;font-size:37.3333px;font-family:Arial;-inkscape-font-specification:Arial-BoldMT;writing-mode:lr-tb;fill:#000000;fill-opacity:1;fill-rule:nonzero;stroke:none;stroke-width:1.33333"
     id="path4608"
     inkscape:connector-curvature="0" /><path
     d="m 220.48195,324.69388 v -25.68489 h 5.37761 v 21.52864 h 13.78125 v 4.15625 z"
     style="font-variant:normal;font-weight:bold;font-size:37.3333px;font-family:Arial;-inkscape-font-specification:Arial-BoldMT;writing-mode:lr-tb;fill:#000000;fill-opacity:1;fill-rule:nonzero;stroke:none;stroke-width:1.33333"
     id="path4610"
     inkscape:connector-curvature="0" /><path
     d="m 243.25528,324.69388 v -25.68489 h 5.37761 v 25.68489 z"
     style="font-variant:normal;font-weight:bold;font-size:37.3333px;font-family:Arial;-inkscape-font-specification:Arial-BoldMT;writing-mode:lr-tb;fill:#000000;fill-opacity:1;fill-rule:nonzero;stroke:none;stroke-width:1.33333"
     id="path4612"
     inkscape:connector-curvature="0" /><path
     d="m 278.57056,311.73294 q 0,4.01042 -1.58593,7.05469 -1.58594,3.04427 -4.53907,4.66667 -2.95312,1.60416 -6.89062,1.60416 -6.05208,0 -9.49739,-3.55469 -3.42709,-3.57291 -3.42709,-9.77083 0,-6.17968 3.42709,-9.64323 3.42708,-3.46354 9.53385,-3.46354 6.10677,0 9.53385,3.5 3.44531,3.5 3.44531,9.60677 z m -5.48698,0 q 0,-4.15625 -1.96875,-6.50781 -1.96874,-2.36979 -5.52343,-2.36979 -3.60938,0 -5.57813,2.35156 -1.96875,2.33333 -1.96875,6.52604 0,4.22917 2.00521,6.67188 2.02344,2.42448 5.50521,2.42448 3.60937,0 5.55989,-2.3698 1.96875,-2.36979 1.96875,-6.72656 z"
     style="font-variant:normal;font-weight:bold;font-size:37.3333px;font-family:Arial;-inkscape-font-specification:Arial-BoldMT;writing-mode:lr-tb;fill:#000000;fill-opacity:1;fill-rule:nonzero;stroke:none;stroke-width:1.33333"
     id="path4614"
     inkscape:connector-curvature="0" /><path
     d="m 315.84177,311.66003 q 0,3.97395 -1.56771,6.94531 -1.54947,2.95312 -4.41145,4.52083 -2.84375,1.56771 -6.52604,1.56771 h -10.39063 v -25.68489 h 9.29688 q 6.48958,0 10.04427,3.28125 3.55468,3.26302 3.55468,9.36979 z m -5.41406,0 q 0,-4.13802 -2.15104,-6.3073 -2.15104,-2.18749 -6.14323,-2.18749 h -3.80989 v 17.37239 h 4.55729 q 3.46354,0 5.5052,-2.38802 2.04167,-2.38802 2.04167,-6.48958 z"
     style="font-variant:normal;font-weight:bold;font-size:37.3333px;font-family:Arial;-inkscape-font-specification:Arial-BoldMT;writing-mode:lr-tb;fill:#000000;fill-opacity:1;fill-rule:nonzero;stroke:none;stroke-width:1.33333"
     id="path4616"
     inkscape:connector-curvature="0" /><path
     d="m 319.90059,324.69388 v -25.68489 h 20.19792 v 4.15625 H 325.2782 v 6.45312 h 13.70833 v 4.15625 H 325.2782 v 6.76302 h 15.5677 v 4.15625 z"
     style="font-variant:normal;font-weight:bold;font-size:37.3333px;font-family:Arial;-inkscape-font-specification:Arial-BoldMT;writing-mode:lr-tb;fill:#000000;fill-opacity:1;fill-rule:nonzero;stroke:none;stroke-width:1.33333"
     id="path4618"
     inkscape:connector-curvature="0" /><path
     d="m 376.43407,324.69388 v -15.56771 q 0,-0.52864 0,-1.05729 0.0182,-0.52865 0.18229,-4.53906 -1.29427,4.90364 -1.91406,6.83594 l -4.63021,14.32812 h -3.82812 l -4.63021,-14.32812 -1.95052,-6.83594 q 0.21875,4.22916 0.21875,5.59635 v 15.56771 h -4.77604 v -25.68489 h 7.20052 l 4.59375,14.36458 0.40104,1.38541 0.875,3.44532 1.14843,-4.1198 4.72136,-15.07551 h 7.16406 v 25.68489 z"
     style="font-variant:normal;font-weight:bold;font-size:37.3333px;font-family:Arial;-inkscape-font-specification:Arial-BoldMT;writing-mode:lr-tb;fill:#000000;fill-opacity:1;fill-rule:nonzero;stroke:none;stroke-width:1.33333"
     id="path4620"
     inkscape:connector-curvature="0" /><path
     d="m 386.20461,324.69388 v -25.68489 h 20.19791 v 4.15625 h -14.82031 v 6.45312 h 13.70833 v 4.15625 h -13.70833 v 6.76302 h 15.56771 v 4.15625 z"
     style="font-variant:normal;font-weight:bold;font-size:37.3333px;font-family:Arial;-inkscape-font-specification:Arial-BoldMT;writing-mode:lr-tb;fill:#000000;fill-opacity:1;fill-rule:nonzero;stroke:none;stroke-width:1.33333"
     id="path4622"
     inkscape:connector-curvature="0" /><path
     d="m 432.1259,317.29284 q 0,3.77343 -2.80729,5.77864 -2.78906,1.98698 -8.20312,1.98698 -4.94011,0 -7.7474,-1.75 -2.80729,-1.75 -3.60937,-5.30469 l 5.19531,-0.85677 q 0.52865,2.04167 2.0599,2.97136 1.53124,0.91146 4.24739,0.91146 5.63281,0 5.63281,-3.42709 0,-1.09375 -0.65625,-1.80468 -0.63802,-0.71094 -1.82291,-1.1849 -1.16667,-0.47396 -4.50261,-1.14844 -2.88021,-0.67448 -4.01041,-1.07552 -1.13021,-0.41927 -2.04167,-0.96614 -0.91146,-0.56511 -1.54948,-1.34896 -0.63802,-0.78386 -1.0026,-1.84115 -0.34636,-1.05729 -0.34636,-2.42448 0,-3.48177 2.60677,-5.32291 2.625,-1.85938 7.61979,-1.85938 4.77604,0 7.16407,1.49479 2.40624,1.4948 3.09895,4.94011 l -5.21354,0.71094 q -0.40104,-1.65886 -1.64062,-2.4974 -1.22136,-0.83854 -3.51823,-0.83854 -4.88542,0 -4.88542,3.0625 0,1.0026 0.51042,1.64062 0.52865,0.63802 1.54948,1.09375 1.02083,0.4375 4.13802,1.11198 3.70052,0.78386 5.28646,1.45834 1.60416,0.65624 2.53385,1.54947 0.92969,0.875 1.42187,2.11459 0.49219,1.22135 0.49219,2.82552 z"
     style="font-variant:normal;font-weight:bold;font-size:37.3333px;font-family:Arial;-inkscape-font-specification:Arial-BoldMT;writing-mode:lr-tb;fill:#000000;fill-opacity:1;fill-rule:nonzero;stroke:none;stroke-width:1.33333"
     id="path4624"
     inkscape:connector-curvature="0" /><path
     d="m 461.01853,311.73294 q 0,5.14063 -2.53385,8.56771 -2.51563,3.40885 -7.01823,4.32031 0.61979,1.80469 1.73177,2.60677 1.13021,0.80209 3.15364,0.80209 1.07553,0 2.16928,-0.1823 l -0.0365,3.68229 q -2.29688,0.51042 -4.41146,0.51042 -2.97135,0 -4.92188,-1.65885 -1.95052,-1.65886 -3.13541,-5.50521 -5.19531,-0.49219 -8.07552,-3.95573 -2.86198,-3.48177 -2.86198,-9.1875 0,-6.17968 3.42708,-9.64323 3.42709,-3.46354 9.53386,-3.46354 6.10677,0 9.53385,3.5 3.44531,3.5 3.44531,9.60677 z m -5.48698,0 q 0,-4.15625 -1.96875,-6.50781 -1.96875,-2.36979 -5.52343,-2.36979 -3.60938,0 -5.57813,2.35156 -1.96875,2.33333 -1.96875,6.52604 0,4.22917 2.00521,6.67188 2.00521,2.4427 5.50521,2.4427 3.60937,0 5.55989,-2.36979 1.96875,-2.36979 1.96875,-6.74479 z"
     style="font-variant:normal;font-weight:bold;font-size:37.3333px;font-family:Arial;-inkscape-font-specification:Arial-BoldMT;writing-mode:lr-tb;fill:#000000;fill-opacity:1;fill-rule:nonzero;stroke:none;stroke-width:1.33333"
     id="path4626"
     inkscape:connector-curvature="0" /><path
     d="m 475.73489,325.05846 q -5.30468,0 -8.13021,-2.58854 -2.80729,-2.58854 -2.80729,-7.40104 v -16.05989 h 5.37761 v 15.64062 q 0,3.04427 1.4401,4.63021 1.45833,1.5677 4.26563,1.5677 2.8802,0 4.42968,-1.64062 1.54948,-1.65885 1.54948,-4.73958 v -15.45833 h 5.3776 v 15.78645 q 0,4.88542 -3.02604,7.58333 -3.00781,2.67969 -8.47656,2.67969 z"
     style="font-variant:normal;font-weight:bold;font-size:37.3333px;font-family:Arial;-inkscape-font-specification:Arial-BoldMT;writing-mode:lr-tb;fill:#000000;fill-opacity:1;fill-rule:nonzero;stroke:none;stroke-width:1.33333"
     id="path4628"
     inkscape:connector-curvature="0" /><path
     d="m 492.00725,324.69388 v -25.68489 h 5.37761 v 25.68489 z"
     style="font-variant:normal;font-weight:bold;font-size:37.3333px;font-family:Arial;-inkscape-font-specification:Arial-BoldMT;writing-mode:lr-tb;fill:#000000;fill-opacity:1;fill-rule:nonzero;stroke:none;stroke-width:1.33333"
     id="path4630"
     inkscape:connector-curvature="0" /><path
     d="m 513.94231,303.16524 v 21.52864 h -5.3776 v -21.52864 h -8.29427 v -4.15625 h 21.98437 v 4.15625 z"
     style="font-variant:normal;font-weight:bold;font-size:37.3333px;font-family:Arial;-inkscape-font-specification:Arial-BoldMT;writing-mode:lr-tb;fill:#000000;fill-opacity:1;fill-rule:nonzero;stroke:none;stroke-width:1.33333"
     id="path4632"
     inkscape:connector-curvature="0" /><path
     d="m 540.55281,324.69388 -2.27864,-6.5625 h -9.78906 l -2.27865,6.5625 h -5.3776 l 9.36979,-25.68489 h 6.34375 l 9.33333,25.68489 z m -7.18229,-21.72917 -0.10937,0.40105 q -0.18229,0.65625 -0.4375,1.49479 -0.25521,0.83854 -3.13542,9.22395 h 7.38281 l -2.53385,-7.38281 -0.78386,-2.47916 z"
     style="font-variant:normal;font-weight:bold;font-size:37.3333px;font-family:Arial;-inkscape-font-specification:Arial-BoldMT;writing-mode:lr-tb;fill:#000000;fill-opacity:1;fill-rule:nonzero;stroke:none;stroke-width:1.33333"
     id="path4634"
     inkscape:connector-curvature="0" /><path
     d="m 563.76355,303.16524 v 7.94791 h 13.14323 v 4.15625 h -13.14323 v 9.42448 h -5.3776 v -25.68489 h 18.9401 v 4.15625 z"
     style="font-variant:normal;font-weight:bold;font-size:37.3333px;font-family:Arial;-inkscape-font-specification:Arial-BoldMT;writing-mode:lr-tb;fill:#000000;fill-opacity:1;fill-rule:nonzero;stroke:none;stroke-width:1.33333"
     id="path4636"
     inkscape:connector-curvature="0" /><path
     d="m 581.15926,324.69388 v -25.68489 h 5.3776 v 25.68489 z"
     style="font-variant:normal;font-weight:bold;font-size:37.3333px;font-family:Arial;-inkscape-font-specification:Arial-BoldMT;writing-mode:lr-tb;fill:#000000;fill-opacity:1;fill-rule:nonzero;stroke:none;stroke-width:1.33333"
     id="path4638"
     inkscape:connector-curvature="0" /><path
     d="m 591.50057,324.69388 v -25.68489 h 5.3776 v 21.52864 h 13.78125 v 4.15625 z"
     style="font-variant:normal;font-weight:bold;font-size:37.3333px;font-family:Arial;-inkscape-font-specification:Arial-BoldMT;writing-mode:lr-tb;fill:#000000;fill-opacity:1;fill-rule:nonzero;stroke:none;stroke-width:1.33333"
     id="path4640"
     inkscape:connector-curvature="0" /><path
     d="m 630.84419,324.69388 v -11.01042 h -11.1927 v 11.01042 h -5.37761 v -25.68489 h 5.37761 v 10.22656 h 11.1927 v -10.22656 h 5.37761 v 25.68489 z"
     style="font-variant:normal;font-weight:bold;font-size:37.3333px;font-family:Arial;-inkscape-font-specification:Arial-BoldMT;writing-mode:lr-tb;fill:#000000;fill-opacity:1;fill-rule:nonzero;stroke:none;stroke-width:1.33333"
     id="path4642"
     inkscape:connector-curvature="0" /><path
     d="m 666.20255,311.73294 q 0,4.01042 -1.58594,7.05469 -1.58593,3.04427 -4.53906,4.66667 -2.95312,1.60416 -6.89062,1.60416 -6.05208,0 -9.4974,-3.55469 -3.42708,-3.57291 -3.42708,-9.77083 0,-6.17968 3.42708,-9.64323 3.42709,-3.46354 9.53386,-3.46354 6.10677,0 9.53385,3.5 3.44531,3.5 3.44531,9.60677 z m -5.48698,0 q 0,-4.15625 -1.96875,-6.50781 -1.96875,-2.36979 -5.52343,-2.36979 -3.60938,0 -5.57813,2.35156 -1.96875,2.33333 -1.96875,6.52604 0,4.22917 2.00521,6.67188 2.02344,2.42448 5.50521,2.42448 3.60937,0 5.55989,-2.3698 1.96875,-2.36979 1.96875,-6.72656 z"
     style="font-variant:normal;font-weight:bold;font-size:37.3333px;font-family:Arial;-inkscape-font-specification:Arial-BoldMT;writing-mode:lr-tb;fill:#000000;fill-opacity:1;fill-rule:nonzero;stroke:none;stroke-width:1.33333"
     id="path4644"
     inkscape:connector-curvature="0" /><path
     d="m 682.45013,308.32409 h -3.99218 l -0.49219,-9.3151 h 5.01302 z m -7.76562,0 h -3.99219 l -0.49219,-9.3151 h 4.97657 z"
     style="font-variant:normal;font-weight:bold;font-size:37.3333px;font-family:Arial;-inkscape-font-specification:Arial-BoldMT;writing-mode:lr-tb;fill:#000000;fill-opacity:1;fill-rule:nonzero;stroke:none;stroke-width:1.33333"
     id="path4646"
     inkscape:connector-curvature="0" /><g
     id="g11"><path
       style="fill:#00adef;fill-opacity:1;fill-rule:evenodd;stroke:none;stroke-width:1.33333"
       d="m 719.20798,24.369342 -16.67733,28.906666 h 33.344 L 719.20798,24.369342"
       id="path9" /><path
       style="fill:#00adef;fill-opacity:1;fill-rule:evenodd;stroke:none;stroke-width:1.33333"
       d="m 739.37998,51.254675 16.66667,-28.899999 h -33.34933 l 16.68266,28.899999"
       id="path8" /><path
       style="fill:#00adef;fill-opacity:1;fill-rule:evenodd;stroke:none;stroke-width:1.33333"
       d="m 759.53065,24.369342 -16.66667,28.906666 h 33.35467 l -16.688,-28.906666"
       id="path7" /><path
       style="fill:#00adef;fill-opacity:1;fill-rule:evenodd;stroke:none;stroke-width:1.33333"
       d="m 742.86398,57.302675 16.66667,28.915999 16.688,-28.915999 h -33.35467"
       id="path6" /><path
       style="fill:#00adef;fill-opacity:1;fill-rule:evenodd;stroke:none;stroke-width:1.33333"
       d="m 739.37998,59.333341 -16.68266,28.906666 h 33.34933 L 739.37998,59.333341"
       id="path5" /><path
       style="fill:#00adef;fill-opacity:1;fill-rule:evenodd;stroke:none;stroke-width:1.33333"
       d="m 756.04665,92.265341 h -33.34933 l 16.68266,28.917329 16.66667,-28.917329"
       id="path4" /><path
       style="fill:#00adef;fill-opacity:1;fill-rule:evenodd;stroke:none;stroke-width:1.33333"
       d="m 759.53065,94.281341 -16.66667,28.915999 h 33.35467 l -16.688,-28.915999"
       id="path3" /><path
       style="fill:#00adef;fill-opacity:1;fill-rule:evenodd;stroke:none;stroke-width:1.33333"
       d="m 779.70265,121.18267 16.68266,-28.917329 h -33.35466 l 16.672,28.917329"
       id="path2" /><path
       style="fill:#00adef;fill-opacity:1;fill-rule:evenodd;stroke:none;stroke-width:1.33333"
       d="m 779.70265,59.333341 -16.672,28.906666 h 33.35466 L 779.70265,59.333341"
       id="path1" /><path
       style="fill:#00adef;fill-opacity:1;fill-rule:evenodd;stroke:none;stroke-width:1.33333"
       d="m 799.86931,86.218674 16.688,-28.915999 h -33.35466 l 16.66666,28.915999"
       id="path16" /><path
       style="fill:#00adef;fill-opacity:1;fill-rule:evenodd;stroke:none;stroke-width:1.33333"
       d="m 702.52532,57.302675 16.66667,28.915999 16.688,-28.915999 h -33.35468"
       id="path10" /><path
       style="fill:#00adef;fill-opacity:1;fill-rule:evenodd;stroke:none;stroke-width:1.33333"
       d="m 699.13037,59.333341 -16.68266,28.906666 h 33.34933 L 699.13037,59.333341"
       id="path11" /></g></svg>
